HIERARCHY
ROOT SpineBase
{
  OFFSET 0.000000 0.000000 0.000000
  CHANNELS 6 Xposition Yposition Zposition Zrotation Xrotation Yrotation
  JOINT SpineMid
  {
    OFFSET 0.000000 27.285397 0.000000
    CHANNELS 3 Zrotation Xrotation Yrotation
    JOINT SpineShoulder
    {
      OFFSET -0.053365 20.307933 -0.640993
      CHANNELS 3 Zrotation Xrotation Yrotation
      JOINT Neck
      {
        OFFSET -0.046217 6.727552 -0.514820
        CHANNELS 3 Zrotation Xrotation Yrotation
        JOINT Head
        {
          OFFSET -2.302811 10.763270 -1.117633
          CHANNELS 3 Zrotation Xrotation Yrotation
          End Site
          {
            OFFSET 0 0 0
          }
        }
      }
      JOINT ShoulderLeft
      {
        OFFSET -16.543827 -0.948754 5.893105
        CHANNELS 3 Zrotation Xrotation Yrotation
        JOINT ElbowLeft
        {
          OFFSET 16.947585 -7.542741 -29.361579
          CHANNELS 3 Zrotation Xrotation Yrotation
          JOINT WristLeft
          {
            OFFSET 5.483216 -7.450055 -9.881097
            CHANNELS 3 Zrotation Xrotation Yrotation
            JOINT HandLeft
            {
              OFFSET -0.706003 -3.616470 -1.835629
              CHANNELS 3 Zrotation Xrotation Yrotation
              JOINT HandTipLeft
              {
                OFFSET 3.304951 -0.393832 -1.796990
                CHANNELS 3 Zrotation Xrotation Yrotation
                End Site
                {
                  OFFSET 0 0 0
                }
              }
              JOINT ThumbLeft
              {
                OFFSET -3.282380 3.040372 -3.362953
                CHANNELS 3 Zrotation Xrotation Yrotation
                End Site
                {
                  OFFSET 0 0 0
                }
              }
            }
          }
        }
      }
      JOINT ShoulderRight
      {
        OFFSET 15.564412 0.328426 -4.434568
        CHANNELS 3 Zrotation Xrotation Yrotation
        JOINT ElbowRight
        {
          OFFSET 8.347855 -20.537502 -6.126691
          CHANNELS 3 Zrotation Xrotation Yrotation
          JOINT WristRight
          {
            OFFSET -8.148951 0.577552 -21.361408
            CHANNELS 3 Zrotation Xrotation Yrotation
            JOINT HandRight
            {
              OFFSET -12.264889 1.285829 -4.418834
              CHANNELS 3 Zrotation Xrotation Yrotation
              JOINT HandTipRight
              {
                OFFSET -3.579056 2.289252 -2.741542
                CHANNELS 3 Zrotation Xrotation Yrotation
                End Site
                {
                  OFFSET 0 0 0
                }
              }
              JOINT ThumbRight
              {
                OFFSET 1.781098 1.148540 -3.983694
                CHANNELS 3 Zrotation Xrotation Yrotation
                End Site
                {
                  OFFSET 0 0 0
                }
              }
            }
          }
        }
      }
    }
  }
  JOINT HipLeft
  {
    OFFSET -7.246038 0.202500 -1.654072
    CHANNELS 3 Zrotation Xrotation Yrotation
    JOINT KneeLeft
    {
      OFFSET -5.425810 -31.982407 3.365601
      CHANNELS 3 Zrotation Xrotation Yrotation
      JOINT AnkleLeft
      {
        OFFSET -2.310557 -35.733488 6.025230
        CHANNELS 3 Zrotation Xrotation Yrotation
        JOINT FootLeft
        {
          OFFSET -1.561367 -7.028517 -7.358048
          CHANNELS 3 Zrotation Xrotation Yrotation
          End Site
          {
            OFFSET 0 0 0
          }
        }
      }
    }
  }
  JOINT HipRight
  {
    OFFSET 6.795680 1.070982 -5.143735
    CHANNELS 3 Zrotation Xrotation Yrotation
    JOINT KneeRight
    {
      OFFSET 5.396117 -27.997198 2.984906
      CHANNELS 3 Zrotation Xrotation Yrotation
      JOINT AnkleRight
      {
        OFFSET 2.564666 -37.763924 9.378953
        CHANNELS 3 Zrotation Xrotation Yrotation
        JOINT FootRight
        {
          OFFSET -2.023726 -4.885049 -11.199555
          CHANNELS 3 Zrotation Xrotation Yrotation
          End Site
          {
            OFFSET 0 0 0
          }
        }
      }
    }
  }
}
MOTION
Frames: 6
Frame Time: 0.033333
24.545854 74.938776 365.176152 1.683539 0.621742 14.867911 -0.070782 -0.222923 -14.820001 -0.102789 -0.018510 0.068767 5.517645 1.255792 0.892224 0.000000 0.000000 0.000000 -85.953526 -63.301308 -49.474634 151.528648 45.186974 -101.974238 7.843781 11.338975 -27.158285 -3.123260 -29.823235 84.476150 0.000000 0.000000 0.000000 0.000000 0.000000 0.000000 7.118333 6.651416 -0.325469 -4.671431 -13.708455 14.834628 -2.418871 4.864471 -35.405312 23.348795 -2.506579 24.359003 0.000000 0.000000 0.000000 0.000000 0.000000 0.000000 -1.786699 -0.168736 -14.879677 -0.000000 0.000000 0.000000 -0.382048 9.367868 -1.522608 0.000000 0.000000 0.000000 -1.252448 -1.368599 -14.981445 -1.183156 2.511108 0.140815 -0.842642 -9.654806 7.123661 0.000000 0.000000 0.000000
24.557476 74.940464 365.131082 1.704814 0.633248 14.932909 -0.081006 -0.230746 -14.884723 -0.091912 -0.015555 0.070240 5.508450 1.330701 0.904110 0.000000 0.000000 0.000000 -86.588778 -63.488167 -49.761484 147.786579 43.502278 -101.381507 12.554505 13.910063 -27.569842 -8.596820 -35.987235 81.618515 0.000000 0.000000 0.000000 0.000000 0.000000 0.000000 7.126658 6.554462 -0.367232 -4.579218 -13.828173 14.897120 -2.467808 5.144178 -35.025930 23.567725 -2.083046 24.834311 0.000000 0.000000 0.000000 0.000000 0.000000 0.000000 -1.810410 -0.172334 -14.945054 -0.000000 0.000000 0.000000 -0.343684 8.532060 -1.402887 0.000000 0.000000 0.000000 -1.290630 -1.437661 -15.058947 -1.118614 2.536781 0.166186 -0.815966 -8.648907 6.248214 0.000000 0.000000 0.000000
24.570495 74.942616 365.088102 1.727571 0.650287 14.997757 -0.072007 -0.232269 -14.948790 -0.071523 -0.009262 0.073340 5.364418 1.307560 0.894012 0.000000 0.000000 0.000000 -85.177372 -63.507374 -48.294706 141.948689 42.412390 -100.085200 -11.943856 29.322037 -19.251968 16.819266 -40.069044 83.412442 0.000000 0.000000 0.000000 0.000000 0.000000 0.000000 7.125967 6.268351 -0.468527 -4.681992 -13.399925 15.180225 -1.885153 4.386028 -35.525443 23.457523 -2.557834 24.410547 0.000000 0.000000 0.000000 0.000000 0.000000 0.000000 -1.836996 -0.180842 -15.010461 -0.000000 0.000000 0.000000 0.489449 7.112293 -1.996608 0.000000 0.000000 0.000000 -1.339724 -1.621273 -15.154627 -1.114831 2.767458 0.210046 -0.479949 -8.094771 4.941974 0.000000 0.000000 0.000000
24.586794 74.944909 365.035505 1.743262 0.682947 15.098363 -0.062857 -0.226163 -15.049163 -0.055875 -0.003784 0.075761 5.249329 1.209983 0.880584 0.000000 0.000000 0.000000 -81.427588 -63.242664 -44.907885 135.513863 44.119246 -96.938889 -42.955753 37.409781 -2.077161 43.804161 -39.388491 87.131592 0.000000 0.000000 0.000000 0.000000 0.000000 0.000000 6.902436 6.313956 -0.374982 -4.537939 -13.377766 15.448566 -1.776587 3.965635 -37.240997 23.323104 -1.132902 26.410309 0.000000 0.000000 0.000000 0.000000 0.000000 0.000000 -1.860970 -0.205042 -15.112083 -0.000000 0.000000 0.000000 1.402607 6.040063 -2.740985 0.000000 0.000000 0.000000 -1.387318 -1.745358 -15.274843 -1.075157 2.840531 0.238052 2.026279 -20.226982 6.440418 0.000000 0.000000 0.000000
24.601380 74.947285 364.983835 1.763121 0.708207 15.227253 -0.056628 -0.223354 -15.177649 -0.044425 -0.002113 0.077940 5.130778 1.190346 0.874710 0.000000 0.000000 0.000000 -80.473679 -63.114309 -44.099347 133.298076 45.292064 -95.424980 -59.901699 35.976840 7.805386 57.269677 -37.206612 86.876033 0.000000 0.000000 0.000000 0.000000 0.000000 0.000000 7.307622 5.706683 -0.702624 -4.482541 -13.629291 15.632739 -3.230936 6.057191 -37.196580 24.930327 -1.248071 26.716742 0.000000 0.000000 0.000000 0.000000 0.000000 0.000000 -1.887224 -0.219995 -15.241774 -0.000000 0.000000 0.000000 4.506892 0.850770 -4.944832 0.000000 0.000000 0.000000 -1.406629 -1.792413 -15.407439 -1.101548 2.791060 0.234759 3.079311 -24.004620 6.644382 0.000000 0.000000 0.000000
24.611294 74.951084 364.932809 1.770842 0.730887 15.293311 -0.056454 -0.213396 -15.243987 -0.041804 0.001654 0.078497 5.110619 1.185358 0.881177 0.000000 0.000000 0.000000 -80.466937 -62.978065 -44.331903 134.239058 47.796289 -94.333682 -76.456861 23.154481 12.166852 70.418865 -25.361437 82.366169 0.000000 0.000000 0.000000 0.000000 0.000000 0.000000 7.572131 5.522382 -0.834070 -4.560495 -13.736151 16.028824 -3.833360 6.742684 -38.434576 25.119413 -0.411858 27.972449 0.000000 0.000000 0.000000 0.000000 0.000000 0.000000 -1.900909 -0.237646 -15.308550 -0.000000 0.000000 0.000000 5.820464 0.123059 -6.189167 0.000000 0.000000 0.000000 -1.404614 -1.769840 -15.464862 -1.172300 2.623802 0.202503 2.737043 -22.223899 6.434961 0.000000 0.000000 0.000000
